<?xml version="1.0" encoding="UTF-8" standalone="no"?>
<svg
   xmlns:dc="http://purl.org/dc/elements/1.1/"
   xmlns:cc="http://creativecommons.org/ns#"
   xmlns:rdf="http://www.w3.org/1999/02/22-rdf-syntax-ns#"
   xmlns:svg="http://www.w3.org/2000/svg"
   xmlns="http://www.w3.org/2000/svg"
   xmlns:sodipodi="http://sodipodi.sourceforge.net/DTD/sodipodi-0.dtd"
   xmlns:inkscape="http://www.inkscape.org/namespaces/inkscape"
   version="1.1"
   id="svg2"
   xml:space="preserve"
   width="404"
   height="96"
   viewBox="0 0 404 96"
   sodipodi:docname="VectorEPS_ByTailorBrands.eps"><metadata
     id="metadata8"><rdf:RDF><cc:Work
         rdf:about=""><dc:format>image/svg+xml</dc:format><dc:type
           rdf:resource="http://purl.org/dc/dcmitype/StillImage" /></cc:Work></rdf:RDF></metadata><defs
     id="defs6"><clipPath
       clipPathUnits="userSpaceOnUse"
       id="clipPath20"><path
         d="M 0,0.0195313 H 721.805 V 719.99953 H 0 Z"
         id="path18" /></clipPath><clipPath
       clipPathUnits="userSpaceOnUse"
       id="clipPath34"><path
         d="M 0,0.0195313 H 721.805 V 719.99953 H 0 Z"
         id="path32" /></clipPath></defs><sodipodi:namedview
     pagecolor="#ffffff"
     bordercolor="#666666"
     borderopacity="1"
     objecttolerance="10"
     gridtolerance="10"
     guidetolerance="10"
     inkscape:pageopacity="0"
     inkscape:pageshadow="2"
     inkscape:window-width="640"
     inkscape:window-height="480"
     id="namedview4" /><g
     id="g10"
     inkscape:groupmode="layer"
     inkscape:label="ink_ext_XXXXXX"
     transform="matrix(1.3333333,0,0,-1.3333333,0,96)"><g
       id="g12"
       transform="scale(0.1)"><g
         id="g14"><g
           id="g16"
           clip-path="url(#clipPath20)"><path
             d="M 721.805,360.012 C 721.805,161.191 560.223,0.0195313 360.902,0.0195313 c -71.754,0 -138.621,20.8906687 -194.816,56.9023687 -3.113,1.9961 -1.793,7.5429 -4.844,9.6289 -3.062,2.1015 -10.492,0.7383 -13.484,2.9297 C 58.168,134.98 0,240.719 0,360.012 c 0,40.812 6.80859,80.039 19.3555,116.613 15.5508,45.324 55.9531,69.961 87.0895,105.098 29.035,32.765 47.922,76.82 87.086,97.308 19.918,10.422 40.778,18.949 62.297,25.473 1.067,0.324 5.496,-6.879 6.563,-6.566 7.359,2.156 14.781,4.074 22.257,5.753 1.223,0.274 -0.918,8.063 0.309,8.325 10.375,2.214 20.844,3.972 31.375,5.265 2.816,0.344 7.902,-5.035 10.734,-4.754 11.875,1.176 48.18,1.828 54.543,1.496 2.243,-0.121 2.985,5.219 5.223,5.063 187.219,-13.258 334.973,-168.953 334.973,-359.074"
             style="fill:#495959;fill-opacity:1;fill-rule:nonzero;stroke:none"
             id="path22" /></g></g><path
         d="M 138.863,479 C 116.895,457.785 98.9336,430.742 87.4453,399.211 75.957,367.68 72.3164,335.449 75.5039,305.113 c 0.6524,-6.222 8.1953,-8.957 12.7031,-4.605 21.969,21.215 39.926,48.258 51.414,79.789 11.488,31.531 15.129,63.762 11.945,94.098 -0.656,6.222 -8.199,8.957 -12.703,4.605 z m 514.758,-40.891 c -21.969,-21.214 -39.93,-48.254 -51.418,-79.785 -11.488,-31.531 -15.129,-63.765 -11.945,-94.097 0.656,-6.223 8.199,-8.961 12.707,-4.606 21.969,21.215 39.926,48.254 51.414,79.785 11.488,31.532 15.129,63.766 11.945,94.098 -0.656,6.223 -8.199,8.961 -12.703,4.605 z M 485.508,594.16 c -30.43,-2.988 -61.352,-13.027 -90.008,-30.594 -28.652,-17.57 -51.598,-40.554 -68.012,-66.289 -3.367,-5.277 0.836,-12.097 7.075,-11.484 30.433,2.988 61.355,13.027 90.007,30.598 28.653,17.566 51.598,40.55 68.016,66.285 3.367,5.277 -0.836,12.097 -7.078,11.484"
         style="fill:#607882;fill-opacity:1;fill-rule:nonzero;stroke:none"
         id="path24" /><path
         d="m 669.379,576.172 c 8.937,3.551 18.039,-4.719 15.328,-13.926 -13.219,-44.887 -37.23,-88.496 -71.969,-126.543 -34.734,-38.043 -76.023,-65.961 -119.593,-83.273 -8.938,-3.551 -18.04,4.715 -15.329,13.925 13.219,44.883 37.231,88.493 71.969,126.54 34.735,38.046 76.024,65.96 119.594,83.277 z M 281.512,323.328 c 26.16,-29.086 56.855,-50.961 88.972,-65.133 6.59,-2.91 13.024,2.852 10.84,9.696 -10.656,33.379 -29.136,66.187 -55.297,95.269 -26.16,29.086 -56.855,50.961 -88.972,65.133 -6.59,2.906 -13.024,-2.852 -10.84,-9.695 10.656,-33.383 29.137,-66.184 55.297,-95.27 z m 46.343,71.606 c 21.2,-38.239 49.094,-69.786 80.43,-93.317 6.426,-4.824 14.824,-0.191 14.145,7.805 -3.325,38.98 -15.282,79.316 -36.481,117.555 -21.199,38.238 -49.094,69.781 -80.429,93.312 -6.426,4.828 -14.829,0.195 -14.145,-7.801 3.328,-38.98 15.281,-79.32 36.48,-117.554 z m 89.528,46.058 c -2.031,-40.066 5.152,-78.187 19.472,-111.75 2.938,-6.883 12.524,-7.367 16.141,-0.812 17.645,31.945 28.652,69.144 30.688,109.215 2.031,40.066 -5.153,78.187 -19.473,111.746 -2.938,6.882 -12.523,7.367 -16.141,0.816 -17.644,-31.945 -28.656,-69.148 -30.687,-109.215 z M 231.172,264.863 c 28.652,-24.797 60.57,-42.375 92.746,-52.574 6.602,-2.094 11.852,3.945 8.844,10.168 -14.664,30.336 -36.614,59.371 -65.266,84.168 -28.652,24.797 -60.57,42.375 -92.746,52.574 -6.602,2.094 -11.852,-3.945 -8.844,-10.168 14.668,-30.336 36.614,-59.371 65.266,-84.168 z m -29.188,-58.797 c 24.485,-15.976 50.723,-26.078 76.407,-30.5 5.269,-0.906 8.668,4.278 5.726,8.731 -14.344,21.703 -34.133,41.641 -58.613,57.621 -24.481,15.98 -50.723,26.082 -76.406,30.504 -5.27,0.906 -8.668,-4.281 -5.727,-8.731 14.344,-21.707 34.129,-41.644 58.613,-57.625 z m -16.152,-65.89 c 25.223,-0.59 49.051,3.847 69.875,12.133 4.27,1.699 4.395,6.957 0.207,8.855 -20.414,9.25 -44.004,14.793 -69.226,15.383 -25.223,0.59 -49.051,-3.848 -69.875,-12.133 -4.274,-1.699 -4.399,-6.957 -0.211,-8.855 20.414,-9.25 44.007,-14.793 69.23,-15.383 z M 534.379,96.7891 c 6.68,-2.543 12.824,3.5199 10.351,10.2109 -12.07,32.621 -31.902,64.258 -59.207,91.793 -27.304,27.535 -58.804,47.66 -91.375,60.055 -6.683,2.543 -12.828,-3.524 -10.351,-10.215 12.07,-32.621 31.902,-64.258 59.207,-91.789 27.305,-27.535 58.805,-47.66 91.375,-60.0549 z m 97.801,59.3239 c 7.976,-1.164 13.113,6.922 8.648,13.621 -21.765,32.653 -51.769,62.371 -88.875,85.821 -37.109,23.453 -76.859,37.82 -115.758,43.508 -7.98,1.164 -13.117,-6.922 -8.652,-13.622 21.77,-32.652 51.77,-62.371 88.879,-85.82 37.105,-23.453 76.859,-37.82 115.758,-43.508 z m 45.136,151.547 c 6.774,3.211 6.86,12.785 0.145,16.121 -32.731,16.258 -70.453,25.684 -110.668,26.047 -40.219,0.36 -78.105,-8.383 -111.129,-24.051 -6.769,-3.211 -6.859,-12.785 -0.144,-16.121 32.73,-16.258 70.453,-25.683 110.671,-26.047 40.219,-0.359 78.106,8.383 111.125,24.051 z M 461.191,40.8398 c 5.977,-3.2695 12.332,1.6016 10.704,8.1993 -7.93,32.1797 -23.204,64.4649 -45.872,93.8989 -22.664,29.429 -50,52.472 -79.125,68.414 -5.972,3.269 -12.328,-1.602 -10.699,-8.2 7.93,-32.179 23.203,-64.464 45.867,-93.894 22.668,-29.4338 50.004,-52.4767 79.125,-68.4182 z M 374.383,23.5664 c 4.289,-3.207 9.676,-0.1289 9.078,5.1836 -2.93,25.8945 -11.512,52.6875 -26.086,78.09 -14.574,25.402 -33.387,46.359 -54.285,61.992 -4.289,3.203 -9.68,0.129 -9.078,-5.184 2.926,-25.894 11.511,-52.687 26.082,-78.0894 14.574,-25.4023 33.39,-46.3594 54.289,-61.9922 z M 264.586,3.49219 c 1.641,-4.476565 6.91,-4.66407 8.875,-0.32031 9.566,21.17582 15.465,45.71482 16.418,72.01172 0.957,26.2934 -3.149,51.1914 -11.156,73.0074 -1.641,4.473 -6.91,4.664 -8.875,0.321 -9.567,-21.18 -15.465,-45.719 -16.418,-72.012 -0.957,-26.3008 3.148,-51.1953 11.156,-73.00781"
         style="fill:#9bcf1b;fill-opacity:1;fill-rule:nonzero;stroke:none"
         id="path26" /><g
         id="g28"><g
           id="g30"
           clip-path="url(#clipPath34)"><path
             d="M 117.77,550.555 C 88.7188,518.73 55.0781,493.996 19.3555,476.625 49.4063,564.219 112.371,636.578 193.531,679.031 191.965,677.379 151.727,587.746 117.77,550.555 Z m 92.441,127.351 c -17.645,-31.949 -28.652,-69.148 -30.688,-109.215 -2.031,-40.066 5.153,-78.187 19.473,-111.75 2.938,-6.882 12.524,-7.367 16.145,-0.812 17.644,31.945 28.652,69.144 30.683,109.215 2.035,40.066 -5.152,78.187 -19.472,111.746 -2.938,6.883 -12.524,7.367 -16.141,0.816 z m 231.375,-53.328 c -9.047,31.594 -25.684,62.348 -49.879,89.25 -1.598,1.777 -3.223,3.527 -4.875,5.258 -8.629,0.609 -17.277,0.914 -25.93,0.914 -15.089,0 -29.964,-0.926 -44.566,-2.719 8.355,-15.152 18.641,-29.711 30.855,-43.289 24.196,-26.902 53.047,-46.726 83.559,-59.113 6.258,-2.543 12.691,3.219 10.836,9.699 z m -96.883,14.918 c -15.933,28.738 -36.426,53.113 -59.746,72.52 -9.809,-2.094 -19.527,-4.602 -29.129,-7.512 3.336,-32.629 13.422,-65.75 30.781,-97.055 19.461,-35.105 45.731,-63.711 75.645,-84.683 6.137,-4.301 14.531,0.328 14.141,7.8 -1.903,36.426 -12.231,73.821 -31.692,108.93"
             style="fill:#84b017;fill-opacity:1;fill-rule:nonzero;stroke:none"
             id="path36" /></g></g><path
         d="m 368.035,653.949 c -14.058,13.051 -10.871,35.942 6.117,44.879 l 0.543,0.285 c 12.309,6.45 27.614,2.739 35.52,-8.668 14.398,-20.777 24.863,-43.117 31.383,-65.898 1.851,-6.473 -4.594,-12.207 -10.848,-9.668 -18.703,7.594 -36.785,17.984 -53.551,31.082 -2.515,1.965 -5.719,4.793 -9.164,7.988 z M 126.984,561.668 c -3.097,-4.055 -6.179,-7.793 -9.214,-11.113 -29.0512,-31.825 -62.6919,-56.559 -98.4145,-73.93 14.8984,43.426 37.8867,83.109 67.1718,117.258 21.7927,25.414 60.7817,-5.617 40.4567,-32.215 z m 159.625,45.781 c 19.465,-35.109 45.731,-63.711 75.645,-84.687 6.105,-4.278 14.531,0.371 14.141,7.804 -1.903,36.422 -12.231,73.821 -31.692,108.93 -0.973,1.746 -1.961,3.488 -2.969,5.215 -7.894,13.504 -24.304,19.387 -39.129,14.316 l -0.585,-0.199 c -18.844,-6.484 -27.606,-28.265 -18.372,-45.89 0.965,-1.84 1.954,-3.668 2.961,-5.489 z M 179.523,568.688 c -2.031,-40.067 5.153,-78.188 19.473,-111.747 2.922,-6.847 12.539,-7.336 16.145,-0.816 17.644,31.945 28.652,69.148 30.683,109.215 0.063,1.183 0.114,2.363 0.156,3.543 0.704,18.793 -14.285,34.445 -33.14,34.445 -17.539,0 -31.988,-13.625 -33.11,-31.086 -0.078,-1.183 -0.144,-2.367 -0.207,-3.554"
         style="fill:#9bcf1b;fill-opacity:1;fill-rule:nonzero;stroke:none"
         id="path38" /><path
         d="m 320.504,327.082 c -12.012,-11.984 -31.641,-11.453 -43.012,1.141 -2.578,2.855 -4.586,5.132 -5.429,6.179 -21.211,26.223 -36.528,54.989 -45.848,84.196 -2.082,6.523 4.566,12.465 10.844,9.695 28.519,-12.586 55.918,-31.246 80.015,-55.633 0.801,-0.808 2.453,-2.609 4.539,-4.926 10.512,-11.691 10.024,-29.55 -1.109,-40.652 z m -56.598,-56.453 c 11.262,11.23 10.653,29.633 -1.351,40.07 -0.914,0.805 -1.844,1.598 -2.782,2.375 -26.605,21.41 -55.699,36.824 -85.007,46.121 -6.129,1.942 -11.653,-4.382 -8.86,-10.16 12.754,-26.379 31.012,-51.777 54.395,-74.254 1.039,-1 3.281,-3 6.054,-5.422 10.895,-9.504 27.317,-8.941 37.551,1.27 z m -55.652,-18.606 c -0.891,0.497 -1.785,0.977 -2.691,1.442 -18.543,9.441 -37.704,15.738 -56.559,18.973 -4.899,0.839 -8.367,-4.606 -5.633,-8.747 9.379,-14.195 21.09,-27.632 34.918,-39.703 2.363,-2.062 4.774,-4.074 7.227,-6.027 8.129,-6.481 19.882,-5.695 27.238,1.644 9.644,9.618 7.414,25.797 -4.5,32.418 z m 243.871,183.438 c 1.875,0.309 3.762,0.559 5.652,0.746 14.957,1.484 26.321,14.008 25.797,28.988 -0.051,1.578 -0.129,3.16 -0.242,4.735 -2.066,28.261 -8.719,55.113 -19.156,79.543 -2.934,6.871 -12.492,7.277 -16.106,0.734 -13.672,-24.754 -23.359,-52.664 -27.976,-82.617 l -0.039,-0.266 c -2.754,-18.652 13.429,-34.945 32.07,-31.863 z m -124.27,-40.527 0.415,-0.743 c 10.675,-19.136 36.843,-22.613 52.367,-7.128 10.39,10.363 12.793,26.347 5.715,39.187 l -0.403,0.727 c -21.199,38.238 -49.097,69.785 -80.429,93.316 -6.09,4.57 -14.79,-0.23 -14.145,-7.801 3.328,-38.984 15.281,-79.324 36.48,-117.558 z M 133.961,170.168 c -5.82,-1.605 -11.547,-3.527 -17.152,-5.754 -3.93,-1.562 -4.059,-7.109 -0.207,-8.851 5.496,-2.489 11.128,-4.676 16.863,-6.551 3.949,-1.289 8.293,-0.223 11.23,2.703 8.016,8 0.192,21.473 -10.734,18.453 z m 535.332,405.969 c -43.539,-17.317 -84.797,-45.219 -119.508,-83.242 -9.91,-10.844 -19.094,-22.325 -27.496,-34.368 -10.746,-15.422 -9.254,-36.269 3.754,-49.847 l 0.566,-0.594 c 14.387,-15.106 38.118,-16.551 54.094,-3.133 11.344,9.535 22.047,19.809 32.035,30.754 34.739,38.047 58.75,81.656 71.969,126.543 2.711,9.199 -6.484,17.438 -15.414,13.887 z M 263.133,23.8438 c -2.344,-2.3438 -3.219,-5.7735 -2.293,-8.9493 1.121,-3.8437 2.367,-7.6445 3.746,-11.40231 1.469,-4.003909 7.117,-4.21094 8.875,-0.32422 1.644,3.64453 3.164,7.34763 4.559,11.09763 3.39,9.1133 -7.993,16.4571 -14.887,9.5782 z m 288.82,231.7112 c -4.707,2.976 -9.492,5.824 -14.348,8.547 -12.761,7.148 -28.757,4.836 -39.105,-5.485 -14.27,-14.238 -12.496,-37.972 3.953,-49.64 4.57,-3.243 9.231,-6.364 13.969,-9.356 37.105,-23.453 76.863,-37.82 115.762,-43.508 7.543,-1.101 12.871,7.285 8.648,13.617 -21.769,32.657 -51.773,62.375 -88.879,85.825 z m 125.512,68.226 c -22.559,11.207 -47.492,19.164 -73.973,23.149 -5.222,0.785 -14.578,1.433 -23.812,1.898 -13.621,0.684 -26.051,-7.523 -30.903,-20.234 -0.105,-0.278 -0.211,-0.555 -0.32,-0.836 -8.027,-20.606 6.934,-42.883 29.094,-42.848 10.894,0.016 20.324,0.285 24.59,0.832 26.843,3.461 52.187,11.012 75.172,21.918 6.746,3.199 6.839,12.801 0.152,16.121 z M 485.523,198.793 c -0.812,0.82 -1.628,1.633 -2.449,2.437 -11.722,11.528 -30.543,11.532 -42.183,-0.074 -11.547,-11.523 -11.645,-30.121 -0.305,-41.847 0.801,-0.825 1.605,-1.645 2.418,-2.465 27.305,-27.535 58.805,-47.66 91.375,-60.0549 6.426,-2.4453 12.73,3.7739 10.351,10.2109 -12.07,32.621 -31.902,64.258 -59.207,91.793 z m -59.5,-55.855 -0.261,0.339 c -9.914,12.832 -28.965,13.895 -40.449,2.438 l -0.918,-0.918 c -9.543,-9.52 -10.688,-24.664 -2.473,-35.348 l 0.144,-0.191 c 22.668,-29.4338 50.004,-52.4807 79.129,-68.4182 5.633,-3.082 12.235,1.9727 10.7,8.1993 -7.93,32.1797 -23.204,64.4649 -45.872,93.8989 z M 369.129,83.0898 c -0.629,1.4961 -1.531,3.4297 -2.59,5.5977 -6.156,12.6135 -22.957,15.4025 -32.902,5.4805 -7.11,-7.0938 -7.953,-18.2461 -2.129,-26.4219 2.316,-3.2539 4.726,-6.4375 7.226,-9.5508 10.762,-13.414 22.809,-25.0234 35.645,-34.625 3.969,-2.9687 9.641,0.2617 9.082,5.1758 -2.027,17.9375 -6.77,36.3047 -14.332,54.3437"
         style="fill:#b9e746;fill-opacity:1;fill-rule:nonzero;stroke:none"
         id="path40" /><path
         d="M 497.359,358.352 C 389.285,243.73 276.918,141.488 166.082,56.9258 c -6.242,4 -12.363,8.1914 -18.348,12.5703 111.688,84.6519 225.106,187.5819 334.18,303.2579 3.399,3.609 8.867,4.336 13.098,1.746 l 0.183,-0.109 c 5.653,-3.453 6.703,-11.227 2.164,-16.039"
         style="fill:#84b017;fill-opacity:1;fill-rule:nonzero;stroke:none"
         id="path42" /><path
         d="m 937.004,395.883 v 30.711 h -40.555 v 49.062 h -30.261 v -233.48 h 30.261 v 153.707 z m 221.156,-152.66 v 106.218 c 0,44.27 -35.67,80.372 -80.05,80.372 -18.93,0 -35.67,-6.442 -49.72,-17.227 v 64.195 H 998.133 V 243.223 h 30.257 v 106.218 c 0,27.563 22.16,49.661 49.72,49.661 27.03,0 49.19,-22.098 49.19,-49.661 V 243.223 Z m 147.56,151.535 c 27.04,0 49.79,-17.754 57.38,-43.668 h -114.15 c 7.59,25.316 30.34,43.668 56.77,43.668 z m 91.4,-74.383 -0.53,16.18 c -2.18,49.59 -41.6,89.515 -90.87,89.515 -50.24,0 -90.79,-42.097 -90.79,-93.336 0,-50.711 40.55,-92.73 90.79,-92.73 28.69,0 54.67,13.48 77.35,44.191 l -24.33,18.356 c -17.27,-23.223 -34.62,-31.313 -53.02,-31.313 -28.61,0 -52.41,21.047 -58.34,49.137 z m 314.12,74.383 c 34.1,0 61.65,-27.488 61.65,-61.496 0,-33.934 -27.55,-61.426 -61.65,-61.426 -34.02,0 -61.58,27.492 -61.58,61.426 0,34.008 27.56,61.496 61.58,61.496 z m 0,-154.231 c 50.84,0 92.52,41.496 92.52,92.735 0,50.711 -41.68,92.281 -92.52,92.281 -23.73,0 -45.36,-9.211 -61.58,-23.742 V 480 H 1618.8 V 250.266 h 30.86 v 14.531 c 16.22,-15.133 37.85,-24.27 61.58,-24.27 z m 237.91,153.707 c 34.09,0 61.65,-27.492 61.65,-60.972 0,-33.934 -27.56,-61.426 -61.65,-61.426 -33.5,0 -61.06,27.492 -61.06,61.426 0,33.48 27.56,60.972 61.06,60.972 z m 0,-153.707 c 51.36,0 92.51,41.496 92.51,92.735 0,50.711 -41.15,91.683 -92.51,91.683 -50.77,0 -92.45,-40.972 -92.45,-91.683 0,-51.239 41.68,-92.735 92.45,-92.735 z m 229.26,155.356 v 30.711 h -40.55 v 49.062 h -30.26 v -233.48 h 30.26 v 153.707 z m 129.25,-1.649 c 33.49,0 61.13,-27.492 61.13,-61.5 0,-33.406 -27.64,-60.898 -61.13,-60.898 -34.1,0 -61.66,27.492 -61.66,60.898 0,34.008 27.56,61.5 61.66,61.5 z m 91.91,-143.968 v 165.543 h -30.78 v -14.536 c -16.23,15.059 -37.86,24.27 -61.13,24.27 -51.37,0 -92.97,-41.57 -92.97,-92.809 0,-50.711 41.6,-91.683 92.97,-91.683 23.27,0 44.9,8.613 61.13,23.746 v -14.531 z m 215.75,-7.043 v 102.472 c 0,42.621 -34.62,77.153 -77.35,77.153 -17.79,0 -34.01,-5.993 -47.01,-16.18 v 10.187 H 2460.7 V 243.223 h 30.26 v 102.472 c 0,25.918 21.11,46.891 47.01,46.891 25.99,0 47.09,-20.973 47.09,-46.891 V 243.223 Z m 93.5,179.625 h -30.2617 V 243.223 h 30.2617 z m 156.27,-171.535 c 19.45,9.14 30.27,25.32 31.39,46.367 0.53,21.05 -9.23,34.008 -22.75,41.574 -12.39,7.488 -27.56,10.187 -41.08,12.883 -31.31,6.515 -37.32,10.261 -36.72,20.523 0.52,10.262 9.16,19.926 36.72,19.926 14.64,0 22.76,-5.395 35.67,-15.582 l 18.93,23.148 c -20.5,17.301 -36.2,22.696 -54.6,22.696 -56.25,0 -66.46,-32.957 -67.06,-49.137 -1.58,-38.801 35.14,-46.367 61.13,-51.238 31.91,-6.442 39.5,-10.785 38.9,-23.668 0,-9.215 -4.28,-16.18 -13.52,-20.524 -18.32,-8.617 -49.19,-4.347 -68.64,9.735 l -17.87,-24.27 c 20.05,-15.129 41.15,-20.523 61.13,-20.523 12.99,0 27.03,2.172 38.37,8.09 z M 3030,395.883 v 30.711 h -40.55 v 49.062 h -30.26 v -233.48 h 30.26 v 153.707"
         style="fill:#d0021b;fill-opacity:1;fill-rule:nonzero;stroke:none"
         id="path44" /></g></g></svg>
